<svg width="398" height="347" viewBox="0 0 398 347" fill="none" xmlns="http://www.w3.org/2000/svg">
<g clip-path="url(#clip0)" filter="url(#filter0_ddd)">
<path d="M216.877 94.4079C236.71 94.4079 252.788 78.2143 252.788 58.2386C252.788 38.2628 236.71 22.0692 216.877 22.0692C197.044 22.0692 180.967 38.2628 180.967 58.2386C180.967 78.2143 197.044 94.4079 216.877 94.4079Z" fill="#A0616A"/>
<path d="M190.074 76.3232C190.074 76.3232 196.84 127.694 186.431 133.46C176.022 139.226 248.364 139.751 248.364 139.751C248.364 139.751 232.23 95.1942 239.516 81.5651L190.074 76.3232Z" fill="#A0616A"/>
<g filter="url(#filter1_d)">
<path d="M301.188 140.01L295.172 167.604L282.45 225.982L282.07 229.18L277.679 266.192L274.759 290.78L272.801 307.296C260.895 313.459 252.266 317.714 252.266 317.714C252.266 317.714 251.524 313.966 250.328 309.17C241.972 311.694 226.511 315.879 213.409 316.716C218.18 322.072 220.373 327.104 217.399 330.817C208.423 342.012 171.368 318.56 158.408 309.815C158.106 311.909 157.992 314.026 158.066 316.14L148.148 308.457L149.129 290.78L150.785 260.87L152.865 223.361C152.209 221.755 151.659 220.107 151.219 218.427C148.182 207.548 144.495 185.822 141.667 167.604C139.392 152.941 137.683 140.552 137.321 137.915C137.272 137.571 137.248 137.394 137.248 137.394L192.152 112.958C196.054 122.072 214.274 124.812 214.274 124.812C229.368 123.764 241.201 115.747 241.201 115.747L301.188 140.01Z" fill="#D0CDE1"/>
</g>
<path d="M256.432 307.233C256.432 307.233 254.107 308.034 250.328 309.17C241.972 311.694 226.511 315.879 213.409 316.716C202.129 317.444 192.596 315.693 190.853 308.28C190.106 305.093 191.165 302.471 193.475 300.317C200.371 293.879 218.38 291.572 232.664 290.78C236.698 290.559 240.429 290.455 243.535 290.416C248.809 290.347 252.266 290.455 252.266 290.455L252.349 290.78L256.432 307.233Z" fill="#A0616A"/>
<path d="M187.003 24.0257L180.289 21.3183C180.289 21.3183 194.328 5.75057 213.86 7.10434L208.367 1.01256C208.367 1.01256 221.795 -4.40224 234.003 9.8117C240.421 17.2836 247.846 26.0666 252.475 35.9604H259.665L256.664 42.6161L267.168 49.2718L256.387 48.0763C257.029 51.7211 257.128 55.442 256.68 59.1161C256.217 62.7913 254.355 66.1418 251.486 68.4604C251.486 68.4604 243.159 51.0999 243.159 48.3925V55.161C243.159 55.161 236.445 49.0694 236.445 45.0082L232.783 49.7462L230.951 42.3008L208.367 49.7462L212.029 43.6546L197.99 45.6851L203.484 38.2397C203.484 38.2397 187.613 47.0388 187.003 54.4843C186.393 61.9296 181.747 68.9846 181.747 68.9846C181.747 68.9846 169.301 34.1785 187.003 24.0257Z" fill="#2F2E41"/>
<path d="M340.221 266.866C336.563 270.86 327.5 276.875 316.512 283.387C312.425 285.807 308.074 288.301 303.635 290.78C293.042 296.697 281.952 302.56 272.801 307.296C260.895 313.459 252.266 317.714 252.266 317.714C252.266 317.714 251.524 313.966 250.328 309.17C248.726 302.752 246.313 294.454 243.798 290.78C243.711 290.652 243.623 290.534 243.535 290.416C242.802 289.447 242.065 288.881 241.337 288.881L277.679 266.192L293.384 256.384L282.07 229.18L267.878 195.054L276.444 167.604L285.053 140.01H301.188C301.188 140.01 306.53 151.756 313.362 168.135C314.383 170.584 315.438 173.137 316.512 175.774C330.566 210.204 348.088 258.283 340.221 266.866Z" fill="#D0CDE1"/>
<path d="M217.399 330.817C208.423 342.012 171.368 318.56 158.408 309.815C155.585 307.911 153.905 306.706 153.905 306.706L165.762 290.78L169.517 285.738C169.517 285.738 172.877 287.534 177.844 290.455C178.024 290.563 178.205 290.672 178.39 290.78C182.673 293.313 188.05 296.623 193.475 300.317C200.961 305.418 208.531 311.236 213.409 316.716C218.18 322.072 220.373 327.104 217.399 330.817Z" fill="#A0616A"/>
<path d="M177.844 290.455C176.518 290.45 175.195 290.559 173.888 290.78C162.661 292.723 159.35 302.958 158.408 309.815C158.106 311.909 157.992 314.026 158.066 316.14L148.148 308.457L144.534 305.659C135.837 302.604 128.087 297.179 121.367 290.78C115.538 285.13 110.309 278.885 105.765 272.143C101.239 265.499 97.2041 258.529 93.6931 251.289C92.7135 249.268 92.1869 247.055 92.1506 244.807C92.1143 242.559 92.5693 240.33 93.4832 238.279L105.765 210.71L123.716 170.417C123.848 169.458 123.993 168.52 124.151 167.604C127.711 147.044 137.248 137.915 137.248 137.915H144.534L149.408 167.604L155.463 204.488L151.219 218.428L141.414 250.62L150.785 260.87L177.844 290.455Z" fill="#D0CDE1"/>
<path d="M186.09 204.518L192.319 211.837C194.633 211.392 197.049 210.87 199.538 210.284L197.749 204.518L202.124 209.658C228.493 203.126 261.177 190.425 261.177 190.425C261.177 190.425 225.891 193.031 199.544 187.234C187.887 184.669 175.894 190.489 171.11 201.499C168.33 207.898 168.767 213.443 178.628 213.443C181.96 213.385 185.283 213.071 188.567 212.501L186.09 204.518Z" fill="#E6AE7A"/>
<path d="M328.086 324.817V327.802C328.087 328.621 327.937 329.434 327.641 330.197C327.51 330.538 327.352 330.867 327.168 331.181C326.586 332.165 325.76 332.98 324.771 333.545C323.782 334.111 322.664 334.408 321.527 334.408H103.46C102.323 334.408 101.205 334.111 100.216 333.545C99.2275 332.98 98.4016 332.165 97.8196 331.181C97.6355 330.867 97.4771 330.538 97.3459 330.197C97.0506 329.434 96.8999 328.621 96.9015 327.802V324.817C96.9013 323.949 97.0708 323.09 97.4003 322.288C97.7298 321.487 98.2129 320.759 98.8219 320.145C99.431 319.532 100.154 319.045 100.95 318.713C101.746 318.381 102.599 318.211 103.46 318.211H116.03V316.819C116.03 316.783 116.037 316.747 116.05 316.713C116.064 316.68 116.084 316.65 116.11 316.624C116.135 316.598 116.165 316.578 116.198 316.564C116.232 316.55 116.267 316.543 116.303 316.543H122.862C122.898 316.543 122.933 316.55 122.966 316.564C123 316.578 123.03 316.598 123.055 316.624C123.081 316.65 123.101 316.68 123.114 316.713C123.128 316.747 123.135 316.783 123.135 316.819V318.211H127.232V316.819C127.232 316.783 127.239 316.747 127.253 316.713C127.267 316.68 127.287 316.65 127.312 316.624C127.338 316.598 127.368 316.578 127.401 316.564C127.434 316.55 127.47 316.543 127.506 316.543H134.064C134.1 316.543 134.136 316.55 134.169 316.564C134.202 316.578 134.232 316.598 134.258 316.624C134.283 316.65 134.303 316.68 134.317 316.713C134.331 316.747 134.338 316.783 134.338 316.819V318.211H138.44V316.819C138.439 316.783 138.447 316.747 138.46 316.713C138.474 316.68 138.494 316.65 138.52 316.624C138.545 316.598 138.575 316.578 138.608 316.564C138.642 316.55 138.677 316.543 138.713 316.543H145.271C145.307 316.543 145.343 316.55 145.376 316.564C145.409 316.578 145.44 316.598 145.465 316.624C145.49 316.65 145.51 316.68 145.524 316.713C145.538 316.747 145.545 316.783 145.545 316.819V318.211H149.642V316.819C149.642 316.783 149.649 316.747 149.663 316.713C149.676 316.68 149.697 316.65 149.722 316.624C149.747 316.598 149.778 316.578 149.811 316.564C149.844 316.55 149.88 316.543 149.916 316.543H156.474C156.51 316.543 156.545 316.55 156.579 316.564C156.612 316.578 156.642 316.598 156.667 316.624C156.693 316.65 156.713 316.68 156.727 316.713C156.74 316.747 156.747 316.783 156.747 316.819V318.211H160.845V316.819C160.844 316.783 160.851 316.747 160.865 316.713C160.879 316.68 160.899 316.65 160.924 316.624C160.95 316.598 160.98 316.578 161.013 316.564C161.046 316.55 161.082 316.543 161.118 316.543H167.676C167.712 316.543 167.748 316.55 167.781 316.564C167.814 316.578 167.844 316.598 167.87 316.624C167.895 316.65 167.915 316.68 167.929 316.713C167.943 316.747 167.95 316.783 167.95 316.819V318.211H172.052V316.819C172.052 316.783 172.059 316.747 172.073 316.713C172.086 316.68 172.106 316.65 172.132 316.624C172.157 316.598 172.187 316.578 172.221 316.564C172.254 316.55 172.289 316.543 172.325 316.543H178.884C178.92 316.543 178.955 316.55 178.988 316.564C179.022 316.578 179.052 316.598 179.077 316.624C179.103 316.65 179.123 316.68 179.137 316.713C179.15 316.747 179.157 316.783 179.157 316.819V318.211H183.254V316.819C183.254 316.783 183.261 316.747 183.275 316.713C183.289 316.68 183.309 316.65 183.334 316.624C183.36 316.598 183.39 316.578 183.423 316.564C183.456 316.55 183.492 316.543 183.528 316.543H234.901C234.937 316.543 234.973 316.55 235.006 316.564C235.039 316.578 235.069 316.598 235.094 316.624C235.12 316.65 235.14 316.68 235.154 316.713C235.167 316.747 235.175 316.783 235.174 316.819V318.211H239.276V316.819C239.276 316.783 239.283 316.747 239.297 316.713C239.311 316.68 239.331 316.65 239.356 316.624C239.382 316.598 239.412 316.578 239.445 316.564C239.478 316.55 239.514 316.543 239.55 316.543H246.108C246.181 316.544 246.25 316.573 246.301 316.625C246.352 316.676 246.381 316.746 246.382 316.819V318.211H250.479V316.819C250.479 316.783 250.486 316.747 250.5 316.713C250.513 316.68 250.534 316.65 250.559 316.624C250.584 316.598 250.615 316.578 250.648 316.564C250.681 316.55 250.717 316.543 250.752 316.543H257.311C257.347 316.543 257.382 316.55 257.416 316.564C257.449 316.578 257.479 316.598 257.504 316.624C257.53 316.65 257.55 316.68 257.564 316.713C257.577 316.747 257.584 316.783 257.584 316.819V318.211H261.682V316.819C261.681 316.783 261.688 316.747 261.702 316.713C261.716 316.68 261.736 316.65 261.761 316.624C261.787 316.598 261.817 316.578 261.85 316.564C261.883 316.55 261.919 316.543 261.955 316.543H268.513C268.549 316.543 268.585 316.55 268.618 316.564C268.651 316.578 268.681 316.598 268.707 316.624C268.732 316.65 268.752 316.68 268.766 316.713C268.78 316.747 268.787 316.783 268.787 316.819V318.211H272.889V316.819C272.889 316.783 272.896 316.747 272.91 316.713C272.923 316.68 272.943 316.65 272.969 316.624C272.994 316.598 273.024 316.578 273.058 316.564C273.091 316.55 273.126 316.543 273.162 316.543H279.721C279.793 316.544 279.861 316.574 279.911 316.625C279.962 316.677 279.99 316.747 279.989 316.819V318.211H284.091V316.819C284.091 316.783 284.098 316.747 284.112 316.713C284.126 316.68 284.146 316.65 284.171 316.624C284.197 316.598 284.227 316.578 284.26 316.564C284.293 316.55 284.329 316.543 284.365 316.543H290.923C290.959 316.543 290.995 316.55 291.028 316.564C291.061 316.578 291.091 316.598 291.117 316.624C291.142 316.65 291.162 316.68 291.176 316.713C291.19 316.747 291.197 316.783 291.197 316.819V318.211H295.294V316.819C295.294 316.783 295.301 316.747 295.315 316.713C295.328 316.68 295.348 316.65 295.374 316.624C295.399 316.598 295.429 316.578 295.463 316.564C295.496 316.55 295.531 316.543 295.567 316.543H302.126C302.162 316.543 302.197 316.55 302.23 316.564C302.264 316.578 302.294 316.598 302.319 316.624C302.345 316.65 302.365 316.68 302.378 316.713C302.392 316.747 302.399 316.783 302.399 316.819V318.211H321.527C322.389 318.211 323.242 318.381 324.037 318.713C324.833 319.045 325.556 319.532 326.165 320.145C326.774 320.759 327.257 321.487 327.587 322.288C327.916 323.09 328.086 323.949 328.086 324.817Z" fill="#3F3D56"/>
<path d="M391.496 330.197H33.5446V331.181H391.496V330.197Z" fill="#3F3D56"/>
<path d="M310.527 199.083H229.247V197.396H192.391V199.083H110.776C109.317 199.083 107.919 199.666 106.888 200.705C105.857 201.743 105.278 203.152 105.278 204.621V316.721C105.278 318.19 105.857 319.598 106.888 320.637C107.919 321.675 109.317 322.258 110.776 322.258H310.527C311.985 322.258 313.384 321.675 314.415 320.637C315.446 319.598 316.025 318.19 316.025 316.721V204.621C316.025 203.893 315.883 203.173 315.607 202.501C315.33 201.83 314.925 201.219 314.415 200.705C313.904 200.191 313.298 199.783 312.631 199.505C311.964 199.226 311.249 199.083 310.527 199.083Z" fill="#3F3D56" fill-opacity="0.99"/>
<path d="M210.811 250.516C217.554 250.516 223.02 245.011 223.02 238.22C223.02 231.429 217.554 225.923 210.811 225.923C204.069 225.923 198.603 231.429 198.603 238.22C198.603 245.011 204.069 250.516 210.811 250.516Z" stroke="#D0CDE1" stroke-width="2" stroke-miterlimit="10"/>
<path d="M210.745 251.835C217.488 251.835 222.954 246.329 222.954 239.538C222.954 232.747 217.488 227.242 210.745 227.242C204.003 227.242 198.537 232.747 198.537 239.538C198.537 246.329 204.003 251.835 210.745 251.835Z" fill="#A0616A"/>
<path d="M56.9583 325.228H43.2849V339H56.9583V325.228Z" fill="#D0CDE1"/>
<path d="M48.6585 314.407V331.13H65.262V314.407H48.6585ZM64.5393 330.402H49.3764V315.135H64.5393V330.402Z" fill="#3F3D56"/>
<path d="M373.401 325.228H359.728V339H373.401V325.228Z" fill="#D0CDE1"/>
<path d="M365.102 314.407V331.13H381.705V314.407H365.102ZM380.982 330.402H365.819V315.135H380.982V330.402Z" fill="#3F3D56"/>
<path d="M55.7141 107.851C77.1123 107.851 94.459 90.379 94.459 68.8265C94.459 47.274 77.1123 29.8022 55.7141 29.8022C34.3158 29.8022 16.9691 47.274 16.9691 68.8265C16.9691 90.379 34.3158 107.851 55.7141 107.851Z" fill="#E6AE7A"/>
<path d="M63.6891 27.7851C60.1809 27.3357 56.6304 27.3357 53.1223 27.7851C45.3067 28.8187 37.9495 32.0888 31.9238 37.2074C25.898 42.326 21.4566 49.0783 19.1266 56.663C18.0668 60.1196 17.4667 63.7024 17.3419 67.3178C17.3243 67.8204 17.3126 68.3289 17.3126 68.8374C17.3235 79.8112 21.6564 90.3324 29.3605 98.092C37.0646 105.852 47.5105 110.216 58.4057 110.227C59.2804 110.227 60.1551 110.197 61.0181 110.144C63.0437 110.016 65.0571 109.735 67.0411 109.304C76.5158 107.252 84.9657 101.894 90.8983 94.1753C96.8309 86.4569 99.8646 76.8751 99.4636 67.1223C99.0626 57.3696 95.2526 48.0733 88.7066 40.8754C82.1606 33.6775 73.2998 29.0411 63.6891 27.7851H63.6891ZM71.2678 106.904H71.2619C67.9525 108.041 64.5078 108.731 61.018 108.956C60.155 109.015 59.2804 109.044 58.4057 109.044C47.8225 109.031 37.6764 104.791 30.1929 97.2535C22.7095 89.7161 18.4996 79.4969 18.4866 68.8374C18.4866 68.3289 18.4984 67.8204 18.516 67.3178C18.9195 56.9296 23.2971 47.1012 30.7323 39.8902C38.1675 32.6791 48.0839 28.6444 58.4057 28.6306C67.863 28.6311 77.013 32.0134 84.2256 38.1747C91.4381 44.3361 96.2446 52.8764 97.7889 62.274C99.3332 71.6717 97.5148 81.3164 92.6578 89.4898C87.8008 97.6631 80.2206 103.834 71.2678 106.904H71.2678Z" fill="#3F3D56"/>
<path d="M58.9927 30.9957H57.8186V39.2736H58.9927V30.9957Z" fill="#3F3D56"/>
<path d="M32.2542 41.6612L31.424 42.4974L37.2354 48.3507L38.0656 47.5145L32.2542 41.6612Z" fill="#3F3D56"/>
<path d="M20.8348 68.2462V69.4287H29.0535V68.2462H20.8348Z" fill="#3F3D56"/>
<path d="M31.424 95.1775L32.2542 96.0136L38.0656 90.1603L37.2354 89.3241L31.424 95.1775Z" fill="#3F3D56"/>
<path d="M78.7457 47.5145L79.5759 48.3507L85.3874 42.4974L84.5572 41.6612L78.7457 47.5145Z" fill="#3F3D56"/>
<path d="M87.7579 68.2461V69.4287H95.9765V68.2461H87.7579Z" fill="#3F3D56"/>
<path d="M79.5759 89.3241L78.7457 90.1603L84.5572 96.0137L85.3874 95.1775L79.5759 89.3241Z" fill="#3F3D56"/>
<path d="M58.9927 98.4013H57.8186V106.679H58.9927V98.4013Z" fill="#3F3D56"/>
<path d="M60.1668 66.4723C59.6587 66.0885 59.0408 65.881 58.4057 65.881C57.7706 65.881 57.1526 66.0885 56.6445 66.4723C56.2967 66.7384 56.0103 67.0773 55.8051 67.4657C55.545 67.9657 55.4325 68.5303 55.4809 69.0927C55.5293 69.6551 55.7365 70.1918 56.078 70.6394C56.4196 71.087 56.8812 71.4267 57.4084 71.6184C57.9355 71.8102 58.5062 71.8459 59.0528 71.7214C59.5995 71.5969 60.0994 71.3174 60.4933 70.9159C60.8873 70.5144 61.1589 70.0076 61.2761 69.4556C61.3932 68.9036 61.351 68.3293 61.1545 67.8006C60.9579 67.272 60.6152 66.811 60.1668 66.4723H60.1668ZM58.4057 70.6113C57.939 70.6099 57.4919 70.4225 57.1619 70.0902C56.8319 69.7578 56.6459 69.3074 56.6445 68.8374C56.6468 68.4787 56.7551 68.1287 56.9557 67.8323C57.1277 67.5813 57.3611 67.3794 57.6333 67.2459C57.9054 67.1124 58.2072 67.0519 58.5094 67.0702C58.8116 67.0886 59.104 67.1852 59.3583 67.3506C59.6125 67.5161 59.8201 67.7448 59.961 68.0148C60.1018 68.2847 60.1711 68.5866 60.1622 68.8914C60.1532 69.1962 60.0664 69.4935 59.91 69.7546C59.7536 70.0157 59.533 70.2317 59.2695 70.3818C59.0059 70.5318 58.7084 70.6109 58.4057 70.6112V70.6113Z" fill="#3F3D56"/>
<path d="M63.6891 17.3963H53.1223V28.0393H63.6891V17.3963Z" fill="#3F3D56"/>
<path d="M58.4057 19.1702C66.1868 19.1702 72.4947 16.92 72.4947 14.1443C72.4947 11.3686 66.1868 9.11847 58.4057 9.11847C50.6245 9.11847 44.3166 11.3686 44.3166 14.1443C44.3166 16.92 50.6245 19.1702 58.4057 19.1702Z" fill="#3F3D56"/>
<path d="M60.1668 46.3689H56.6445V66.4723H60.1668V46.3689Z" fill="#3F3D56"/>
<path d="M114.364 108.425H4V109.608H114.364V108.425Z" fill="#3F3D56"/>
<path d="M77.5406 294.994C77.9963 310.709 68.8799 316.468 57.4391 316.805C57.1733 316.812 56.9088 316.817 56.6454 316.819C56.1148 316.823 55.5894 316.814 55.0692 316.792C44.7221 316.36 36.5318 310.828 36.108 296.213C35.6695 281.088 54.3079 261.437 55.7062 259.983L55.7087 259.982C55.7619 259.927 55.7891 259.899 55.7891 259.899C55.7891 259.899 77.085 279.281 77.5406 294.994Z" fill="#D0CDE1"/>
<path d="M56.6154 314.423L63.883 303.537L56.6302 315.594L56.6454 316.819C56.1148 316.823 55.5894 316.814 55.0691 316.792L55.4296 301.047L55.4197 300.926L55.433 300.902L55.4675 299.414L47.5086 287.776L55.4581 298.301L55.4863 298.615L55.7586 286.719L48.8843 274.652L55.7782 284.629L55.7062 259.983L55.7064 259.901L55.7087 259.982L56.165 279.406L62.4302 271.516L56.1856 281.08L56.3223 291.72L62.0875 281.335L56.3435 293.285L56.4196 299.202L64.8038 284.735L56.4451 301.266L56.6154 314.423Z" fill="#3F3D56"/>
<path d="M393.984 294.994C394.439 310.709 385.323 316.468 373.882 316.805C373.616 316.812 373.352 316.817 373.088 316.819C372.558 316.823 372.032 316.814 371.512 316.792C361.165 316.36 352.975 310.828 352.551 296.213C352.112 281.088 370.751 261.437 372.149 259.983L372.152 259.982C372.205 259.927 372.232 259.899 372.232 259.899C372.232 259.899 393.528 279.281 393.984 294.994Z" fill="#D0CDE1"/>
<path d="M373.058 314.423L380.326 303.537L373.073 315.594L373.088 316.819C372.558 316.823 372.032 316.814 371.512 316.792L371.873 301.047L371.863 300.926L371.876 300.902L371.911 299.414L363.952 287.776L371.901 298.301L371.929 298.615L372.202 286.719L365.327 274.652L372.221 284.629L372.149 259.983L372.149 259.901L372.152 259.982L372.608 279.406L378.873 271.516L372.629 281.08L372.765 291.72L378.531 281.335L372.787 293.285L372.863 299.202L381.247 284.735L372.888 301.266L373.058 314.423Z" fill="#3F3D56"/>
</g>
<defs>
<filter id="filter0_ddd" x="0" y="0" width="398" height="347" filterUnits="userSpaceOnUse" color-interpolation-filters="sRGB">
<feFlood flood-opacity="0" result="BackgroundImageFix"/>
<feColorMatrix in="SourceAlpha" type="matrix" values="0 0 0 0 0 0 0 0 0 0 0 0 0 0 0 0 0 0 127 0"/>
<feOffset dy="4"/>
<feGaussianBlur stdDeviation="2"/>
<feColorMatrix type="matrix" values="0 0 0 0 0 0 0 0 0 0 0 0 0 0 0 0 0 0 0.25 0"/>
<feBlend mode="normal" in2="BackgroundImageFix" result="effect1_dropShadow"/>
<feColorMatrix in="SourceAlpha" type="matrix" values="0 0 0 0 0 0 0 0 0 0 0 0 0 0 0 0 0 0 127 0"/>
<feOffset dy="4"/>
<feGaussianBlur stdDeviation="2"/>
<feColorMatrix type="matrix" values="0 0 0 0 0 0 0 0 0 0 0 0 0 0 0 0 0 0 0.25 0"/>
<feBlend mode="normal" in2="effect1_dropShadow" result="effect2_dropShadow"/>
<feColorMatrix in="SourceAlpha" type="matrix" values="0 0 0 0 0 0 0 0 0 0 0 0 0 0 0 0 0 0 127 0"/>
<feOffset dy="4"/>
<feGaussianBlur stdDeviation="2"/>
<feColorMatrix type="matrix" values="0 0 0 0 0 0 0 0 0 0 0 0 0 0 0 0 0 0 0.25 0"/>
<feBlend mode="normal" in2="effect2_dropShadow" result="effect3_dropShadow"/>
<feBlend mode="normal" in="SourceGraphic" in2="effect3_dropShadow" result="shape"/>
</filter>
<filter id="filter1_d" x="133.248" y="112.958" width="171.94" height="228.827" filterUnits="userSpaceOnUse" color-interpolation-filters="sRGB">
<feFlood flood-opacity="0" result="BackgroundImageFix"/>
<feColorMatrix in="SourceAlpha" type="matrix" values="0 0 0 0 0 0 0 0 0 0 0 0 0 0 0 0 0 0 127 0"/>
<feOffset dy="4"/>
<feGaussianBlur stdDeviation="2"/>
<feColorMatrix type="matrix" values="0 0 0 0 0 0 0 0 0 0 0 0 0 0 0 0 0 0 0.25 0"/>
<feBlend mode="normal" in2="BackgroundImageFix" result="effect1_dropShadow"/>
<feBlend mode="normal" in="SourceGraphic" in2="effect1_dropShadow" result="shape"/>
</filter>
<clipPath id="clip0">
<rect width="390" height="339" fill="white" transform="translate(4)"/>
</clipPath>
</defs>
</svg>
