<svg width="100" height="100" viewBox="0 0 100 100" fill="none" xmlns="http://www.w3.org/2000/svg">
<g clip-path="url(#clip0)">
<path d="M50 100C77.6142 100 100 77.6142 100 50C100 22.3858 77.6142 0 50 0C22.3858 0 0 22.3858 0 50C0 77.6142 22.3858 100 50 100Z" fill="#4D5CA9"/>
<path d="M17.0363 77.0893L38.7805 98.7354C42.3871 99.5623 46.1424 100 50 100C77.6143 100 100 77.6143 100 50C100 49.0295 99.9693 48.066 99.9148 47.1092L71.5727 18.767L17.0363 77.0893Z" fill="#3F50A6"/>
<path d="M50 9.51944C33.5506 9.51944 20.2158 22.8542 20.2158 39.3036L17.0361 77.0905L25.3838 84.3934L35.1078 77.0905L42.5539 84.3934L50 77.0903L57.4461 84.3933L64.8922 77.0903L74.6164 84.3933L82.9641 77.0903L79.7844 39.3034C79.7842 22.8542 66.4494 9.51944 50 9.51944Z" fill="#FFF5CC"/>
<path d="M82.9629 77.0899L74.6152 84.3926L64.8926 77.0899L57.4453 84.3926L50 77.0899V9.51758C66.4492 9.51758 79.7832 22.8535 79.7832 39.3027L82.9629 77.0899Z" fill="#FDE997"/>
<path d="M42.508 37.3541L30.2576 31.5627C30.2576 31.5627 29.5393 42.8271 37.9342 41.1566C39.6375 40.8176 41.9244 38.9451 42.508 37.3541Z" fill="#634C39"/>
<path d="M57.492 37.3541L69.7424 31.5627C69.7424 31.5627 70.4608 42.8271 62.0658 41.1566C60.3625 40.8176 58.0756 38.9451 57.492 37.3541Z" fill="#442E1F"/>
<path d="M59.7186 50.5785C57.9449 50.3699 56.3313 49.4521 55.2453 48.0346C52.6006 44.5822 47.3994 44.5822 44.7549 48.0344C43.669 49.452 42.0553 50.3697 40.2817 50.5783C37.6371 50.8895 36.4463 54.0561 38.2305 56.0326L50 69.0703L61.7697 56.0326C63.5539 54.0564 62.3631 50.8896 59.7186 50.5785Z" fill="#FCB42D"/>
<path d="M61.7695 56.0332L50 69.0703V45.4453C51.9609 45.4453 53.9219 46.3086 55.2441 48.0352H55.2461C56.332 49.4531 57.9453 50.3691 59.7188 50.5781C62.3633 50.8906 63.5547 54.0566 61.7695 56.0332Z" fill="#EE9521"/>
</g>
<defs>
<clipPath id="clip0">
<rect width="100" height="100" fill="white"/>
</clipPath>
</defs>
</svg>
